<?xml version="1.0" standalone="no"?>
<!DOCTYPE svg PUBLIC "-//W3C//DTD SVG 20010904//EN"
 "http://www.w3.org/TR/2001/REC-SVG-20010904/DTD/svg10.dtd">
<svg version="1.0" xmlns="http://www.w3.org/2000/svg"
 width="256.000000pt" height="256.000000pt" viewBox="0 0 256.000000 256.000000"
 preserveAspectRatio="xMidYMid meet">
<metadata>
Created by potrace 1.14, written by Peter Selinger 2001-2017
</metadata>
<g transform="translate(0.000000,256.000000) scale(0.100000,-0.100000)"
fill="#000000" stroke="none">
<path d="M73 2040 c-58 -35 -68 -62 -67 -175 1 -115 16 -179 75 -321 133 -321
307 -466 622 -519 20 -3 37 -10 37 -15 0 -5 -31 -98 -70 -206 -38 -109 -70
-212 -70 -229 0 -39 34 -73 75 -75 103 -7 214 1 229 16 18 17 22 69 6 79 -18
11 -10 43 16 64 30 24 54 27 54 9 0 -7 13 -38 28 -68 42 -85 76 -100 233 -100
141 0 163 7 157 55 -2 23 -13 35 -46 53 -51 29 -91 78 -99 124 l-5 35 170 0
170 0 -43 -83 c-49 -93 -51 -125 -9 -162 25 -22 32 -22 167 -20 138 3 142 4
145 25 2 13 -5 29 -18 40 -44 36 -50 45 -50 74 0 19 11 42 33 65 l32 36 108
-111 c59 -62 119 -116 135 -122 32 -13 243 -12 256 1 21 21 -4 56 -61 83 -54
25 -62 34 -115 122 -32 53 -58 99 -58 104 0 4 26 36 57 70 l57 63 70 -6 c152
-13 167 -12 190 17 12 15 22 36 23 47 1 11 10 33 21 48 40 56 38 68 -18 103
-66 41 -145 142 -142 182 4 43 -16 95 -38 102 -20 6 -102 -28 -120 -51 -10
-11 -17 -9 -44 11 -34 26 -80 33 -92 14 -4 -6 -12 -32 -18 -57 -9 -32 -17 -46
-31 -48 -54 -8 -114 -16 -155 -20 -25 -3 -56 -8 -70 -11 -14 -4 -198 -8 -410
-9 -212 -2 -434 -5 -495 -8 -127 -6 -190 7 -270 59 -55 35 -115 97 -139 143
-8 16 -43 103 -76 193 -67 177 -129 310 -163 347 -50 54 -118 67 -174 32z"/>
</g>
</svg>
